<?xml version="1.0" encoding="UTF-8" standalone="no"?>
<!-- Created with Inkscape (http://www.inkscape.org/) -->

<svg
   xmlns:dc="http://purl.org/dc/elements/1.1/"
   xmlns:cc="http://creativecommons.org/ns#"
   xmlns:rdf="http://www.w3.org/1999/02/22-rdf-syntax-ns#"
   xmlns:svg="http://www.w3.org/2000/svg"
   xmlns="http://www.w3.org/2000/svg"
   xmlns:xlink="http://www.w3.org/1999/xlink"
   xmlns:sodipodi="http://sodipodi.sourceforge.net/DTD/sodipodi-0.dtd"
   xmlns:inkscape="http://www.inkscape.org/namespaces/inkscape"
   width="20"
   height="200"
   id="svg2"
   version="1.1"
   inkscape:version="0.48.2 r9819"
   sodipodi:docname="checkboxes.svg"
   inkscape:export-filename="/Users/ryan/Documents/etc/checkboxes.png"
   inkscape:export-xdpi="292.62"
   inkscape:export-ydpi="292.62">
  <defs
     id="defs4">
    <linearGradient
       id="linearGradient5256">
      <stop
         style="stop-color:#d9d3ff;stop-opacity:1;"
         offset="0"
         id="stop5258" />
      <stop
         style="stop-color:#9689ff;stop-opacity:1;"
         offset="1"
         id="stop5260" />
    </linearGradient>
    <linearGradient
       id="linearGradient3767">
      <stop
         style="stop-color:#0000e5;stop-opacity:1;"
         offset="0"
         id="stop3769" />
      <stop
         style="stop-color:#000000;stop-opacity:0;"
         offset="1"
         id="stop3771" />
    </linearGradient>
    <radialGradient
       inkscape:collect="always"
       xlink:href="#linearGradient5256"
       id="radialGradient5262"
       cx="6.1723208"
       cy="-898.13983"
       fx="6.1723208"
       fy="-898.13983"
       r="5"
       gradientTransform="matrix(1,0,0,1.01,0,8.9814328)"
       gradientUnits="userSpaceOnUse" />
    <radialGradient
       inkscape:collect="always"
       xlink:href="#linearGradient5256"
       id="radialGradient5301"
       gradientUnits="userSpaceOnUse"
       gradientTransform="matrix(1,0,0,1.01,0,-71.018567)"
       cx="6.1723207"
       cy="-898.13984"
       fx="6.1723207"
       fy="-898.13984"
       r="4.9999999" />
    <radialGradient
       inkscape:collect="always"
       xlink:href="#linearGradient5256"
       id="radialGradient5307"
       gradientUnits="userSpaceOnUse"
       gradientTransform="matrix(1,0,0,1.01,0,-71.018567)"
       cx="6.1723208"
       cy="-898.13983"
       fx="6.1723208"
       fy="-898.13983"
       r="5" />
  </defs>
  <sodipodi:namedview
     id="base"
     pagecolor="#ffffff"
     bordercolor="#666666"
     borderopacity="1.0"
     inkscape:pageopacity="0.0"
     inkscape:pageshadow="2"
     inkscape:zoom="4"
     inkscape:cx="-51.237807"
     inkscape:cy="110.72984"
     inkscape:document-units="px"
     inkscape:current-layer="layer1"
     showgrid="false"
     inkscape:window-width="1029"
     inkscape:window-height="668"
     inkscape:window-x="0"
     inkscape:window-y="0"
     inkscape:window-maximized="0">
    <inkscape:grid
       type="xygrid"
       id="grid2993"
       empspacing="5"
       visible="true"
       enabled="true"
       snapvisiblegridlinesonly="true" />
  </sodipodi:namedview>
  <metadata
     id="metadata7">
    <rdf:RDF>
      <cc:Work
         rdf:about="">
        <dc:format>image/svg+xml</dc:format>
        <dc:type
           rdf:resource="http://purl.org/dc/dcmitype/StillImage" />
        <dc:title />
      </cc:Work>
    </rdf:RDF>
  </metadata>
  <g
     inkscape:label="Layer 1"
     inkscape:groupmode="layer"
     id="layer1"
     transform="translate(0,-852.36218)">
    <rect
       transform="scale(1,-1)"
       style="fill:url(#radialGradient5307);fill-opacity:1;stroke:#1a00f2;stroke-width:0.95487487;stroke-linecap:round;stroke-linejoin:round;stroke-miterlimit:4;stroke-opacity:1;stroke-dasharray:none"
       id="rect5305"
       width="9.045125"
       height="9.1451254"
       x="1.6497582"
       y="-982.7124"
       rx="1.2511395e-17" />
    <rect
       style="fill:none;fill-opacity:1;stroke:#1a00f2;stroke-width:0.95487487000000004;stroke-linecap:round;stroke-linejoin:round;stroke-miterlimit:4;stroke-opacity:1;stroke-dasharray:none"
       id="rect2997"
       width="9.045125"
       height="9.1451254"
       x="1.6497582"
       y="853.56726"
       rx="1.2511395e-17" />
    <rect
       rx="1.2511395e-17"
       y="-902.7124"
       x="1.6497582"
       height="9.1451254"
       width="9.045125"
       id="rect5233"
       style="fill:url(#radialGradient5262);fill-opacity:1.0;stroke:#1a00f2;stroke-width:0.95487487000000004;stroke-linecap:round;stroke-linejoin:round;stroke-miterlimit:4;stroke-opacity:1;stroke-dasharray:none"
       transform="scale(1,-1)" />
    <rect
       transform="scale(1,-1)"
       style="fill:none;fill-opacity:1;stroke:#1a00f2;stroke-width:0.95487487000000004;stroke-linecap:round;stroke-linejoin:round;stroke-miterlimit:4;stroke-opacity:1;stroke-dasharray:none"
       id="rect5254"
       width="9.045125"
       height="9.1451254"
       x="1.6497582"
       y="-942.7124"
       rx="1.2511395e-17" />
    <path
       style="fill:#e8169b;fill-opacity:1;stroke:none"
       id="path5297"
       d="m 6.8492361,936.08731 c 0.1979127,0.61316 0.6138618,1.10899 1.0001542,1.56297 0.3875471,0.43599 0.8405492,0.77282 1.2334532,1.20107 0.2302154,0.25741 0.5375815,0.36599 0.7918271,0.58117 0.020331,0.0186 0.1456144,0.14761 0.1892324,0.13694 0.03617,-0.009 0.112041,-0.11224 0.07942,-0.0917 -0.6792936,0.4276 -1.3332049,0.9124 -2.0231528,1.31523 -0.088076,0.0515 0.1454407,-0.15873 0.2034091,-0.25275 0.099525,-0.16144 0.1778141,-0.33989 0.266721,-0.50984 1.0095206,-2.29778 2.0564407,-4.57205 3.0565027,-6.87571 0,0 1.84349,-0.98517 1.84349,-0.98517 l 0,0 c -0.98871,2.20462 -2.001659,4.40045 -2.777164,6.72723 -0.06037,0.16617 -0.119888,0.33279 -0.181139,0.49851 -0.0386,0.10444 -0.03796,0.24963 -0.118415,0.31194 -0.7910538,0.61266 -1.7693494,2.14447 -2.6253518,1.30834 -0.2677679,-0.20309 -0.5642644,-0.35836 -0.7852395,-0.63849 -0.3837132,-0.42826 -0.8097295,-0.80279 -1.1682773,-1.26284 -0.4126539,-0.50528 -0.8630637,-0.99352 -1.1795654,-1.59233 0,0 2.1940964,-1.43457 2.1940964,-1.43457 z"
       inkscape:connector-curvature="0" />
    <path
       inkscape:connector-curvature="0"
       d="m 6.8492361,976.08731 c 0.1979127,0.61316 0.6138618,1.10899 1.0001542,1.56297 0.3875471,0.43599 0.8405492,0.77282 1.2334532,1.20107 0.2302154,0.25741 0.5375815,0.36599 0.7918271,0.58117 0.020331,0.0186 0.1456144,0.14761 0.1892324,0.13694 0.03617,-0.009 0.112041,-0.11224 0.07942,-0.0917 -0.6792936,0.4276 -1.3332049,0.9124 -2.0231528,1.31523 -0.088076,0.0515 0.1454407,-0.15873 0.2034091,-0.25275 0.099525,-0.16144 0.1778141,-0.33989 0.266721,-0.50984 1.0095206,-2.29778 2.0564407,-4.57205 3.0565027,-6.87571 0,0 1.84349,-0.98517 1.84349,-0.98517 l 0,0 c -0.98871,2.20462 -2.001659,4.40045 -2.777164,6.72723 -0.06037,0.16617 -0.119888,0.33279 -0.181139,0.49851 -0.0386,0.10444 -0.03796,0.24963 -0.118415,0.31194 -0.7910538,0.61266 -1.7693494,2.14447 -2.6253518,1.30834 -0.2677679,-0.20309 -0.5642644,-0.35836 -0.7852395,-0.63849 -0.3837132,-0.42826 -0.8097295,-0.80279 -1.1682773,-1.26284 -0.4126539,-0.50528 -0.8630637,-0.99352 -1.1795654,-1.59233 0,0 2.1940964,-1.43457 2.1940964,-1.43457 z"
       id="path5303"
       style="fill:#e8169b;fill-opacity:1;stroke:none" />
  </g>
</svg>
